<?xml version="1.0" standalone="no"?>
<!DOCTYPE svg PUBLIC "-//W3C//DTD SVG 20010904//EN"
 "http://www.w3.org/TR/2001/REC-SVG-20010904/DTD/svg10.dtd">
<svg version="1.0" xmlns="http://www.w3.org/2000/svg"
 width="518.000000pt" height="518.000000pt" viewBox="0 0 518.000000 518.000000"
 preserveAspectRatio="xMidYMid meet">
<metadata>
Created by potrace 1.14, written by Peter Selinger 2001-2017
</metadata>
<g transform="translate(0.000000,518.000000) scale(0.100000,-0.100000)"
fill="#000000" stroke="none">
<path d="M1301 4284 l-164 -164 0 -964 0 -964 160 -161 c88 -89 165 -161 169
-161 5 0 81 72 169 160 l160 160 1 964 1 965 -166 165 -166 165 -164 -165z"/>
<path d="M3566 4292 c-86 -87 -161 -164 -166 -172 -5 -8 -9 -433 -9 -969 l0
-956 162 -162 c89 -90 165 -163 170 -163 4 0 80 72 168 161 l161 161 0 964 0
965 -164 164 -165 164 -157 -157z"/>
<path d="M175 3157 l-165 -163 0 -965 0 -964 165 -165 165 -165 165 165 165
165 0 962 0 963 -165 165 -165 166 -165 -164z"/>
<path d="M2429 3153 l-166 -168 1 -961 1 -961 162 -162 c89 -88 164 -161 167
-161 3 0 79 73 168 162 l163 162 0 963 0 963 -165 165 -165 165 -166 -167z"/>
<path d="M4683 3156 l-163 -164 0 -964 0 -963 165 -165 165 -165 165 165 165
165 0 964 0 964 -164 164 c-90 89 -166 163 -168 162 -1 0 -76 -74 -165 -163z"/>
</g>
</svg>
